<svg id="Layer_1" data-name="Layer 1" xmlns="http://www.w3.org/2000/svg" viewBox="0 0 5915.54 4612.76"><defs><style>.cls-1{font-size:138.43px;font-family:AvenirLTStd-Black;font-weight:800;}.cls-2{font-size:340px;font-family:Metropolis-Regular, Metropolis;}</style></defs><title>new</title><path d="M2932.34,2469.66a537.89,537.89,0,0,1-178.47,118.52c-194.85,79-426.52,39.5-584.54-118.52l-5.93-5.93,209-209,5.92,5.92a243.9,243.9,0,1,0,344.93-344.93l-215-215L1491.67,2717.38l-424-424c-210.71-210.7-210.71-552.31,0-763a537.89,537.89,0,0,1,178.47-118.52c194.85-79,426.52-39.5,584.54,118.52l5.93,5.93-209,209-5.92-5.92a243.9,243.9,0,1,0-344.93,344.93l215,215L2508.33,1282.62l424,424C3143.05,1917.34,3143.05,2259,2932.34,2469.66Z" transform="translate(306.38 306.38)"/><text class="cls-1" transform="translate(4961.63 2868.77)">Pelumi Daniels</text><path d="M5569.16,2031.46A342.89,342.89,0,0,1,5226,2374.64H5070.33V1812H4944.68a125.65,125.65,0,1,0,0,251.3h61.88v311.3H4882.8V2179.37a249.45,249.45,0,0,1,61.88-491.09H5194.1v562.6H5226a219.32,219.32,0,0,0,155.65-374.07v169.65H5257.86V1689.3l17.13,2.45a342.95,342.95,0,0,1,294.17,339.71Z" transform="translate(306.38 306.38)"/><text class="cls-2" transform="translate(1276.64 1351.1) rotate(-42.7)">P</text><text class="cls-2" transform="matrix(0.83, -0.56, 0.56, 0.83, 1431.7, 1208.07)">e</text><text class="cls-2" transform="translate(1595.66 1099.29) rotate(-28.86)">l</text><text class="cls-2" transform="matrix(0.92, -0.4, 0.4, 0.92, 1657.14, 1061.75)">u</text><text class="cls-2" transform="translate(1831.69 980.57) rotate(-13.5)">m</text><text class="cls-2" transform="translate(2121.74 918.02) rotate(-6.06)">i</text><text class="cls-2" transform="translate(2194.38 909.87) rotate(-2.62)"> </text><text class="cls-2" transform="matrix(1, 0.08, -0.08, 1, 2286.13, 900.32)">D</text><text class="cls-2" transform="translate(2535.63 921.43) rotate(13.4)">a</text><text class="cls-2" transform="translate(2718.03 964.14) rotate(21.23)">n</text><text class="cls-2" transform="translate(2899.55 1037.58) rotate(26.68)">i</text><text class="cls-2" transform="translate(2964.74 1066.76) rotate(32.07)">e</text><text class="cls-2" transform="translate(3130.05 1173.53) rotate(37.53)">l</text><text class="cls-2" transform="matrix(0.75, 0.66, -0.66, 0.75, 3188.8, 1218.11)"> </text><text class="cls-2" transform="matrix(0.68, 0.73, -0.73, 0.68, 3261.14, 1276.16)">P</text><text class="cls-2" transform="translate(3404.25 1431.15) rotate(55.61)">e</text><text class="cls-2" transform="translate(3513.12 1595.07) rotate(61.12)">l</text><text class="cls-2" transform="translate(3550.68 1656.52) rotate(66.58)">u</text><text class="cls-2" transform="matrix(0.23, 0.97, -0.97, 0.23, 3631.94, 1831)">m</text><text class="cls-2" transform="translate(3694.65 2121.05) rotate(83.92)">i</text><text class="cls-2" transform="translate(3702.83 2193.66) rotate(87.35)"> </text><text class="cls-2" transform="translate(3712.43 2285.43) rotate(94.39)">D</text><text class="cls-2" transform="translate(3691.44 2534.93) rotate(103.37)">a</text><text class="cls-2" transform="translate(3648.82 2717.34) rotate(111.2)">n</text><text class="cls-2" transform="translate(3575.48 2898.9) rotate(116.65)">i</text><text class="cls-2" transform="matrix(-0.53, 0.85, -0.85, -0.53, 3546.34, 2964.09)">e</text><text class="cls-2" transform="matrix(-0.61, 0.79, -0.79, -0.61, 3439.63, 3129.49)">l</text><text class="cls-2" transform="matrix(-0.66, 0.76, -0.76, -0.66, 3395.09, 3188.24)"> </text><text class="cls-2" transform="translate(3337.1 3260.59) rotate(137.24)">P</text><text class="cls-2" transform="matrix(-0.82, 0.57, -0.57, -0.82, 3182.17, 3403.79)">e</text><text class="cls-2" transform="translate(3018.31 3512.75) rotate(151.09)">l</text><text class="cls-2" transform="translate(2956.87 3550.35) rotate(156.55)">u</text><text class="cls-2" transform="matrix(-0.97, 0.23, -0.23, -0.97, 2782.4, 3631.71)">m</text><text class="cls-2" transform="translate(2492.42 3694.55) rotate(173.89)">i</text><text class="cls-2" transform="translate(2419.79 3702.77) rotate(177.32)"> </text><text class="cls-2" transform="translate(2328.06 3712.42) rotate(-175.64)">D</text><text class="cls-2" transform="matrix(-0.97, -0.23, 0.23, -0.97, 2078.53, 3691.55)">a</text><text class="cls-2" transform="translate(1896.1 3649.03) rotate(-158.83)">n</text><text class="cls-2" transform="matrix(-0.89, -0.45, 0.45, -0.89, 1714.5, 3575.78)">i</text><text class="cls-2" transform="translate(1649.29 3546.68) rotate(-147.99)">e</text><text class="cls-2" transform="matrix(-0.79, -0.61, 0.61, -0.79, 1483.85, 3440.06)">l</text><text class="cls-2" transform="matrix(-0.76, -0.66, 0.66, -0.76, 1425.04, 3395.53)"> </text><text class="cls-2" transform="translate(1352.68 3337.58) rotate(-132.79)">P</text><text class="cls-2" transform="translate(1209.4 3182.72) rotate(-124.45)">e</text><text class="cls-2" transform="translate(1100.37 3018.94) rotate(-118.94)">l</text><text class="cls-2" transform="translate(1062.74 2957.52) rotate(-113.48)">u</text><text class="cls-2" transform="translate(981.29 2783.09) rotate(-103.59)">m</text><text class="cls-2" transform="translate(918.3 2493.14) rotate(-96.14)">i</text><text class="cls-2" transform="matrix(-0.05, -1, 1, -0.05, 910.04, 2420.51)"> </text><text class="cls-2" transform="matrix(0.08, -1, 1, 0.08, 900.35, 2328.76)">D</text><text class="cls-2" transform="translate(921.09 2079.23) rotate(-76.69)">a</text><text class="cls-2" transform="matrix(0.36, -0.93, 0.93, 0.36, 963.51, 1896.79)">n</text><text class="cls-2" transform="translate(1036.68 1715.14) rotate(-63.41)">i</text><text class="cls-2" transform="matrix(0.53, -0.85, 0.85, 0.53, 1065.75, 1649.91)">e</text><text class="cls-2" transform="translate(1172.27 1484.44) rotate(-52.56)">l</text><text class="cls-2" transform="translate(1216.78 1425.6) rotate(-49.1)"> </text></svg>